Coordinates
version=1
nRows=27
nColumns=12
inDegrees=yes

Units are S.I. units (second, meters, Newtons, ...)
Angles are in degrees

endheader
time	SC_y	SC_z	SC_x	AC_y	AC_z	AC_x	GH_y	GH_z	GH_yy	EL_x	PS_y
       0.0              -47.67          16.59          47.28          31.07          -9.84          18.81          41.61          17.08         -137.2          10.13          92.08
   0.01129              -47.67          16.59          47.28          31.08         -9.838          18.81          41.61          17.08         -137.2          10.13          92.07
   0.02259              -47.66           16.6          47.27          31.08         -9.835          18.81          41.61          17.07         -137.2          10.13          92.07
   0.03388              -47.66           16.6          47.27          31.08         -9.832          18.81          41.61          17.07         -137.2          10.13          92.06
   0.04518              -47.66           16.6          47.26          31.08          -9.83          18.81          41.61          17.06         -137.2          10.13          92.06
   0.05647              -47.65           16.6          47.26          31.08         -9.826           18.8          41.61          17.05         -137.2          10.13          92.05
   0.06777              -47.65           16.6          47.25          31.08         -9.823           18.8          41.61          17.05         -137.2          10.13          92.04
   0.07906              -47.65           16.6          47.25          31.08          -9.82           18.8           41.6          17.04         -137.2          10.13          92.04
   0.09035              -47.64           16.6          47.24          31.08         -9.816           18.8           41.6          17.03         -137.2          10.13          92.03
    0.1016              -47.64           16.6          47.24          31.08         -9.812           18.8           41.6          17.02         -137.2          10.13          92.02
    0.1129              -47.63           16.6          47.23          31.09         -9.807           18.8           41.6          17.02         -137.2          10.13          92.01
    0.1242              -47.62           16.6          47.22          31.09         -9.803           18.8           41.6          17.01         -137.2          10.13           92.0
    0.1355              -47.62          16.61          47.21          31.09         -9.797           18.8           41.6           17.0         -137.2          10.14          91.99
    0.1468              -47.61          16.61           47.2          31.09         -9.792          18.79          41.59          16.98         -137.2          10.14          91.98
    0.1581               -47.6          16.61           47.2          31.09         -9.786          18.79          41.59          16.97         -137.2          10.14          91.97
    0.1694               -47.6          16.61          47.19          31.09          -9.78          18.79          41.59          16.96         -137.2          10.14          91.95
    0.1807              -47.59          16.61          47.17           31.1         -9.773          18.79          41.59          16.94         -137.2          10.14          91.94
     0.192              -47.58          16.62          47.16           31.1         -9.765          18.79          41.58          16.93         -137.2          10.14          91.92
    0.2033              -47.57          16.62          47.15           31.1         -9.757          18.78          41.58          16.91         -137.2          10.14          91.91
    0.2146              -47.56          16.62          47.13           31.1         -9.747          18.78          41.58          16.89         -137.1          10.14          91.89
    0.2259              -47.54          16.62          47.12          31.11         -9.737          18.78          41.57          16.87         -137.1          10.15          91.87
    0.2372              -47.53          16.63           47.1          31.11         -9.726          18.77          41.57          16.85         -137.1          10.15          91.84
    0.2485              -47.52          16.63          47.08          31.11         -9.714          18.77          41.56          16.83         -137.1          10.15          91.82
    0.2598               -47.5          16.64          47.06          31.12         -9.701          18.77          41.56           16.8         -137.1          10.15          91.79
    0.2711              -47.48          16.64          47.04          31.12         -9.686          18.76          41.55          16.77         -137.1          10.16          91.76
    0.2824              -47.46          16.65          47.01          31.13         -9.669          18.76          41.55          16.73         -137.1          10.16          91.72
    0.2937              -47.44          16.65          46.98          31.13          -9.65          18.75          41.54           16.7         -137.1          10.16          91.69
